<svg width="127" height="134" viewBox="0 0 127 134" fill="none" xmlns="http://www.w3.org/2000/svg">
<g filter="url(#filter0_d_8_27)">
<path d="M41.088 89.7198L41.0677 89.5891L33.9874 91.7161L26.1549 92.5835C28.9197 85.5291 30.8825 83.7447 32.5181 79.1085L29.7034 76.5893L21.8856 75.0901L30.2707 63.0648L28.101 62.0428L17.5813 55.3013L28.1897 49.4907L25.2696 35.8849L40.2564 41.6738L38.9867 38.1684L36.7153 24.2655L51.9515 30.4723L51.9755 30.3733L56.06 13.6126L64.9866 27.5709L66.5871 30.4366L69.5072 25.1092L76.325 12.864L80.2524 28.2799L82.2059 31.6744L96.7694 24.1209L97.0743 41.351L101.066 41.7094L112.469 43.0601L106.091 52.7426L103.308 56.2341L113.155 65.675L102.379 73.1354L101.192 72.9453L108.466 86.7233L93.6996 85.747C93.3299 91.9498 93.5258 97.709 94.4758 103.809C91.5742 99.2003 87.3789 97.198 82.862 94.5482L75.3547 107.704C72.8209 103.486 70.1226 99.3765 67.7126 95.073L59.6491 107.625C57.5403 103.038 55.8641 99.2933 53.0974 95.1086L42.3947 106.409L41.0825 89.7138" fill="#363131"/>
<path d="M41.0377 89.6531C41.0377 89.6531 31.9644 91.4541 26.1469 92.6357C28.2584 89.7695 32.7378 77.573 32.7378 77.573L20.4328 74.7857L30.2591 63.2362L16.1343 55.0775L28.1845 49.718L23.8159 35.7382L40.233 41.9321L35.246 24.165L50.4615 30.3471L50.4855 30.2485L54.5626 13.5524C58.3554 19.5018 66.5298 30.7396 66.5298 30.7396C66.5298 30.7396 73.6817 19.2986 76.2545 13.2368C78.1888 19.6024 82.1274 31.9725 82.1274 31.9725L96.673 24.449L96.9756 41.6126L112.354 43.313L103.203 56.4347L115.261 66.4811L101.09 73.0794C101.09 73.0794 105.427 81.3564 108.354 86.8028L92.153 85.4022C92.153 85.4022 93.4338 97.7428 94.3825 103.82C90.0549 100.569 85.7046 97.3521 81.3319 94.1704L75.2874 107.704L67.6556 95.1232L59.6031 107.625C57.4972 103.057 53.0602 95.1587 53.0602 95.1587L42.3721 106.414L41.0377 89.6531Z" stroke="black" stroke-width="2.089" stroke-miterlimit="10" stroke-linecap="round" stroke-linejoin="round"/>
<path d="M36.463 78.8593L34.2259 79.9796L33.4515 78.4332L35.6887 77.3129C36.0187 77.1476 36.2561 76.96 36.4006 76.75C36.5493 76.5379 36.6225 76.3127 36.6203 76.0742C36.6202 75.8296 36.5589 75.5851 36.4365 75.3406C36.31 75.088 36.1437 74.8781 35.9378 74.7111C35.7339 74.538 35.4964 74.4352 35.2253 74.4028C34.9583 74.3683 34.6597 74.4337 34.3297 74.599L32.8138 75.3581L36.4959 82.7113L34.5033 83.7091L30.0468 74.8095L33.5553 73.0526C34.2643 72.6975 34.9358 72.5218 35.5696 72.5255C36.2075 72.5272 36.7732 72.6848 37.2666 72.9983C37.762 73.3058 38.1536 73.7468 38.4413 74.3214C38.729 74.8959 38.8425 75.4635 38.7817 76.024C38.725 76.5825 38.5011 77.1074 38.1101 77.5988C37.7211 78.0841 37.1721 78.5043 36.463 78.8593ZM38.164 70.7447L41.5809 69.0337C42.2614 68.6929 42.9012 68.5 43.5004 68.4548C44.1036 68.4075 44.6397 68.5162 45.1086 68.7809C45.5776 69.0456 45.9589 69.4713 46.2528 70.0581C46.4976 70.5471 46.6263 71.0025 46.6388 71.4244C46.6513 71.8463 46.569 72.2417 46.3919 72.6107C46.2189 72.9777 45.9755 73.3263 45.6619 73.6567L45.1915 74.3357L42.282 75.7926L41.4954 74.2523L43.6591 73.1688C43.9566 73.0198 44.1766 72.8434 44.3192 72.6395C44.4617 72.4356 44.5339 72.2134 44.5358 71.9729C44.5397 71.7263 44.4764 71.4726 44.3458 71.2118C44.2111 70.9428 44.0439 70.7361 43.8441 70.5915C43.6443 70.4469 43.419 70.3737 43.1683 70.3718C42.9197 70.3638 42.6486 70.4332 42.3553 70.5802L40.9311 71.2933L44.6132 78.6465L42.6206 79.6444L38.164 70.7447ZM47.5472 77.1774L43.5681 74.2235L45.6677 73.1645L49.6345 76.0175L49.6804 76.1091L47.5472 77.1774ZM55.8076 67.2306L56.0066 67.6279C56.3453 68.3044 56.5556 68.9585 56.6375 69.5902C56.7235 70.2199 56.6902 70.81 56.5377 71.3603C56.3893 71.9087 56.1318 72.4021 55.7652 72.8405C55.4006 73.2728 54.9351 73.6307 54.3687 73.9144C53.8023 74.198 53.2348 74.3573 52.6662 74.3923C52.0955 74.4232 51.5421 74.3359 51.006 74.1304C50.4739 73.9228 49.9795 73.597 49.5227 73.153C49.0659 72.709 48.6681 72.1487 48.3294 71.4723L48.1305 71.075C47.7917 70.3985 47.5814 69.7444 47.4995 69.1127C47.4156 68.4769 47.4478 67.8848 47.5963 67.3364C47.7488 66.7861 48.0094 66.2937 48.378 65.8594C48.7446 65.421 49.2111 65.06 49.7775 64.7763C50.3439 64.4927 50.9125 64.3354 51.4831 64.3045C52.0517 64.2695 52.6 64.3568 53.128 64.5664C53.6601 64.774 54.1555 65.1018 54.6143 65.5499C55.0711 65.9939 55.4689 66.5542 55.8076 67.2306ZM53.9956 68.6349L53.7905 68.2254C53.564 67.7731 53.3233 67.3941 53.0684 67.0886C52.8114 66.7789 52.5463 66.5447 52.2731 66.3859C51.9999 66.2271 51.7196 66.1458 51.4322 66.1419C51.1428 66.1339 50.8535 66.2023 50.5641 66.3472C50.2626 66.4982 50.0304 66.6909 49.8675 66.9254C49.7025 67.1558 49.6018 67.428 49.5653 67.7419C49.5329 68.0537 49.5637 68.4053 49.6576 68.7965C49.7537 69.1816 49.9149 69.6004 50.1414 70.0527L50.3465 70.4622C50.571 70.9105 50.8096 71.2904 51.0626 71.6021C51.3175 71.9077 51.5826 72.1419 51.8578 72.3048C52.1331 72.4676 52.4134 72.5541 52.6987 72.5641C52.9881 72.5721 53.2836 72.5006 53.5851 72.3496C53.8745 72.2047 54.1006 72.015 54.2635 71.7805C54.4305 71.544 54.5312 71.2668 54.5656 70.9488C54.6001 70.6309 54.5693 70.2793 54.4733 69.8942C54.3793 69.5029 54.2201 69.0832 53.9956 68.6349ZM61.5486 66.7105L58.4756 60.5736L60.456 59.5819L63.529 65.7188C63.8269 66.3137 63.9496 66.8945 63.8969 67.4611C63.8463 68.0216 63.652 68.5343 63.3139 68.9992C62.9779 69.458 62.5247 69.8302 61.9542 70.1159C61.3674 70.4097 60.7968 70.5731 60.2425 70.6061C59.6861 70.6349 59.1755 70.5109 58.7107 70.234C58.2478 69.951 57.8573 69.4916 57.539 68.856L59.5316 67.8581C59.6887 68.1719 59.8519 68.4011 60.0211 68.5457C60.1924 68.6842 60.3739 68.7513 60.5654 68.7471C60.757 68.7429 60.9628 68.6858 61.1829 68.5756C61.3948 68.4695 61.5526 68.3267 61.6565 68.1473C61.7583 67.9638 61.802 67.7508 61.7875 67.5083C61.7711 67.2617 61.6914 66.9957 61.5486 66.7105ZM71.6533 63.1795L72.4247 64.7199L67.6875 67.092L66.9162 65.5517L71.6533 63.1795ZM63.9095 57.8526L68.366 66.7522L66.3734 67.7501L61.9168 58.8504L63.9095 57.8526ZM69.1505 59.7082L69.8973 61.1996L65.7715 63.2656L65.0246 61.7742L69.1505 59.7082ZM67.9742 55.8171L68.7486 57.3636L64.0054 59.7388L63.231 58.1923L67.9742 55.8171ZM77.0251 58.6854L79.0055 57.6937C79.279 58.3213 79.3822 58.9448 79.3154 59.5645C79.2505 60.178 79.0195 60.7498 78.6224 61.2799C78.2233 61.806 77.659 62.2517 76.9296 62.6169C76.3469 62.9087 75.7753 63.0701 75.2148 63.101C74.6544 63.1319 74.1203 63.0425 73.6127 62.8329C73.1072 62.6172 72.6372 62.2893 72.2028 61.8494C71.7705 61.4033 71.388 60.8481 71.0554 60.1839L70.783 59.6399C70.4504 58.9757 70.239 58.3349 70.149 57.7174C70.0589 57.0999 70.0831 56.5221 70.2213 55.9839C70.3596 55.4458 70.6069 54.9626 70.9633 54.5344C71.3197 54.1062 71.7791 53.7513 72.3414 53.4697C73.0994 53.0902 73.8075 52.9063 74.4658 52.9181C75.1241 52.93 75.7153 53.1029 76.2393 53.4368C76.7673 53.7687 77.2129 54.226 77.5761 54.8086L75.5895 55.8034C75.3998 55.4652 75.1887 55.2065 74.9562 55.0273C74.7217 54.844 74.4557 54.7504 74.1582 54.7465C73.8606 54.7426 73.5162 54.8386 73.125 55.0345C72.8398 55.1773 72.6157 55.3558 72.4528 55.5699C72.2939 55.7819 72.1993 56.0357 72.1689 56.3313C72.1426 56.6248 72.1815 56.9621 72.2857 57.3431C72.3878 57.7201 72.5572 58.1449 72.7939 58.6176L73.0725 59.1739C73.3071 59.6425 73.5407 60.0326 73.7733 60.3443C74.0058 60.656 74.2454 60.8902 74.4921 61.047C74.7429 61.2018 75.0038 61.2801 75.2749 61.2819C75.5459 61.2838 75.8363 61.2072 76.146 61.0521C76.5005 60.8746 76.7684 60.6717 76.9497 60.4433C77.1289 60.2108 77.2245 59.9489 77.2366 59.6574C77.2486 59.366 77.1781 59.042 77.0251 58.6854ZM81.1098 49.2395L85.5663 58.1391L83.5798 59.1339L79.1233 50.2342L81.1098 49.2395ZM83.8176 47.8835L84.592 49.43L77.2449 53.1091L76.4705 51.5626L83.8176 47.8835ZM92.5999 51.6813C92.5244 51.5305 92.4347 51.4073 92.3307 51.3116C92.2246 51.2118 92.087 51.1405 91.9178 51.0978C91.7487 51.0551 91.5306 51.0369 91.2636 51.0432C90.9946 51.0454 90.6573 51.0792 90.2517 51.1447C89.7871 51.2142 89.3326 51.2583 88.8883 51.2769C88.4461 51.2894 88.0293 51.2561 87.6379 51.1768C87.2466 51.0976 86.8959 50.9521 86.586 50.7403C86.2802 50.5265 86.0293 50.224 85.8334 49.8328C85.6436 49.4538 85.5558 49.0697 85.5698 48.6804C85.5838 48.2911 85.6875 47.913 85.8809 47.546C86.0723 47.175 86.3432 46.8304 86.6935 46.5122C87.0418 46.19 87.4605 45.9064 87.9495 45.6616C88.6015 45.3351 89.2322 45.1645 89.8415 45.1499C90.4529 45.1291 91.0013 45.2572 91.4865 45.5341C91.9697 45.8069 92.348 46.2163 92.6214 46.7624L90.641 47.7541C90.5206 47.5137 90.3636 47.3273 90.1699 47.1949C89.9782 47.0564 89.754 46.9852 89.4972 46.9813C89.2445 46.9754 88.9673 47.0479 88.6658 47.1989C88.3724 47.3458 88.1483 47.5141 87.9935 47.7037C87.8408 47.8872 87.7512 48.0799 87.7248 48.2817C87.7025 48.4814 87.7363 48.6709 87.8261 48.8502C87.8975 48.9929 87.9995 49.1049 88.132 49.1863C88.2665 49.2617 88.4306 49.3145 88.6243 49.345C88.8199 49.3693 89.0462 49.3733 89.303 49.3568C89.5597 49.3404 89.8451 49.3045 90.1589 49.2493C90.7112 49.1613 91.2166 49.1172 91.6751 49.1169C92.1378 49.1146 92.5536 49.1663 92.9225 49.2721C93.2915 49.3779 93.6126 49.5458 93.8858 49.7759C94.1632 50.004 94.3947 50.3035 94.5803 50.6743C94.7783 51.0696 94.8763 51.4588 94.8745 51.842C94.8768 52.2231 94.7874 52.5941 94.6062 52.9549C94.427 53.3097 94.1653 53.642 93.8211 53.952C93.4768 54.262 93.0582 54.5405 92.5651 54.7874C92.1169 55.0118 91.6462 55.1762 91.153 55.2804C90.6578 55.3806 90.1728 55.3992 89.6979 55.3363C89.227 55.2714 88.7928 55.1066 88.3952 54.8418C87.9997 54.571 87.6734 54.1789 87.4162 53.6654L89.4089 52.6676C89.5436 52.9366 89.6966 53.1454 89.8678 53.2941C90.0371 53.4387 90.2216 53.5323 90.4213 53.575C90.6252 53.6156 90.8433 53.6084 91.0756 53.5532C91.3079 53.498 91.5524 53.4062 91.8091 53.2776C92.1066 53.1286 92.3266 52.9675 92.4692 52.7942C92.6137 52.6147 92.6941 52.4292 92.7103 52.2376C92.7265 52.046 92.6897 51.8606 92.5999 51.6813ZM94.5265 42.521L97.3642 48.7681L95.7933 49.5547L92.4911 43.5403L94.5265 42.521ZM96.458 51.5995C96.3213 51.3265 96.3038 51.0473 96.4055 50.7619C96.5072 50.4765 96.7191 50.2532 97.041 50.092C97.3588 49.9328 97.6604 49.899 97.9458 49.9906C98.2353 50.0801 98.4484 50.2613 98.5851 50.5343C98.7239 50.8114 98.7424 51.0927 98.6406 51.3781C98.5409 51.6573 98.3322 51.8766 98.0143 52.0357C97.6924 52.1969 97.3877 52.2348 97.1003 52.1494C96.8108 52.0599 96.5967 51.8766 96.458 51.5995Z" fill="#FDFFA4"/>
</g>
<defs>
<filter id="filter0_d_8_27" x="-4" y="0" width="135" height="142" filterUnits="userSpaceOnUse" color-interpolation-filters="sRGB">
<feFlood flood-opacity="0" result="BackgroundImageFix"/>
<feColorMatrix in="SourceAlpha" type="matrix" values="0 0 0 0 0 0 0 0 0 0 0 0 0 0 0 0 0 0 127 0" result="hardAlpha"/>
<feOffset dy="4"/>
<feGaussianBlur stdDeviation="2"/>
<feComposite in2="hardAlpha" operator="out"/>
<feColorMatrix type="matrix" values="0 0 0 0 0 0 0 0 0 0 0 0 0 0 0 0 0 0 0.25 0"/>
<feBlend mode="normal" in2="BackgroundImageFix" result="effect1_dropShadow_8_27"/>
<feBlend mode="normal" in="SourceGraphic" in2="effect1_dropShadow_8_27" result="shape"/>
</filter>
</defs>
</svg>
